<svg xmlns="http://www.w3.org/2000/svg" xmlns:xlink="http://www.w3.org/1999/xlink" width="243.606" height="243.606" viewBox="0 0 243.606 243.606"><defs><clipPath id="a"><rect width="243.606" height="243.606" fill="none"/></clipPath></defs><rect width="243.605" height="243.605" transform="translate(0 0.001)" fill="#f93400"/><g clip-path="url(#a)"><path d="M64.118,76.837c-.054.6-.6.817-.926,1.253a.408.408,0,0,1-.272.054.639.639,0,0,0-.6.272c-.163.272-.435.272-.708.272-.218-.054-.272.273-.435.273s-.218-.273-.435-.218h-.327a1.5,1.5,0,0,1-1.58-.926c-.054-.218-.6-.11-.545-.545a.545.545,0,0,1-.218-.6.327.327,0,0,0-.054-.218,1.251,1.251,0,0,1-.49-1.308.483.483,0,0,0-.218-.544c-.272-.164-.218-.436-.327-.654a2.982,2.982,0,0,1-.327-.98c-.435-.218,0-.817-.435-1.035a1.769,1.769,0,0,0-.382-.926l-.98-1.8A2.653,2.653,0,0,0,53.5,67.9a1.338,1.338,0,0,0-.6-.218H51.208a.734.734,0,0,1-.654-.272c-.054-.054-.272,0-.381.054s-.218.163-.327.163H46.9c-.273,0-.491-.327-.872-.272H44.726c-.163,0-.272,0-.381.163a.767.767,0,0,1-.218-.109.5.5,0,0,0-.382-.163.327.327,0,0,0-.218.054,6.063,6.063,0,0,1-1.035.49c-.273.055-.382.273-.545.382a.7.7,0,0,0-.327.708c.054.272-.382.381-.273.708-.163.163-.327.327-.272.6-.327.218-.163.6-.273.872s-.327.49-.435.762c-.163.327.109.708-.163,1.035a3.713,3.713,0,0,0-.381.817c-.055.109.054.327,0,.381-.273.272-.327.708-.545,1.035-.327.436-.708.817-.545,1.416a6.1,6.1,0,0,0-.708,1.308,1.893,1.893,0,0,1-1.361,1.035,13.282,13.282,0,0,0-1.471.054,1.24,1.24,0,0,1-1.2-.491c-.273-.381-.763-.49-1.09-.872a2.1,2.1,0,0,1-.654-1.089c-.054-.382-.218-.872.272-1.2a.886.886,0,0,1,.382-.926c.109-.054.163-.218.218-.327v-.327c0-.327-.109-.708.055-.927a1.366,1.366,0,0,0,.218-.762c.327-.218.163-.654.381-.926s.163-.654.491-.817c-.11-.327.218-.436.381-.654l.164-.327c.054-.272-.055-.544.108-.817.164-.218.164-.6.327-.817.218-.272,0-.6.218-.763.327-.272.163-.6.218-.872,0-.163-.054-.435.054-.49.218-.163.11-.491.327-.654a1.512,1.512,0,0,0,.654-.654c.109-.218,0-.544.272-.708-.109-.49.381-.817.327-1.253-.054-.272.382-.382.273-.708s.327-.435.272-.708.218-.435.272-.654c.054-.327.273-.435.436-.653l.327-.545c.11-.272.382-.545.382-.817-.054-.382.272-.545.272-.872,0-.272.218-.436.327-.654a2.02,2.02,0,0,0,.054-.817c0-.218.218-.327.273-.49.054-.273.327-.436.327-.654,0-.272.382-.382.272-.708s.273-.436.273-.708a4.18,4.18,0,0,1,.817-1.8.362.362,0,0,0,.218-.272c.054-.273-.054-.6.109-.763a.832.832,0,0,0,.163-.763c-.054-.327.327-.436.327-.708v-.654c.327-.163.218-.6.545-.817.544-.381.653-1.035.98-1.525a.4.4,0,0,0,.109-.327V44.48c0-.11-.054-.218,0-.273.163-.218.435-.381.545-.6s-.055-.545.218-.763c.163-.109.272-.327.435-.382.382-.109.6-.435.872-.544s.545-.436.872-.436a.33.33,0,0,1,.218.054c.054,0,.109.054.163.054.272,0,.381-.435.654-.327a1.362,1.362,0,0,1,1.634,0c.273-.054.382.218.6.272a4.482,4.482,0,0,1,1.961,1.525c.054.054,0,.218.054.272.327.218.272.654.6.872-.163.491.491.872.327,1.417l.817,1.961c.054.109.054.273.163.327.272.163.327.49.491.763.054.054.163.109.163.163-.11.872.435,1.471.762,2.179.164.327.491.654.327,1.09-.054.054-.054.218,0,.218.491.218.109.817.491,1.035.109.436.435.763.381,1.253-.054.163.163.381.218.6.054.164,0,.436.109.491.218.163.11.436.273.6a.4.4,0,0,1,.218.435c-.163.436.272.708.272,1.09.491.763.817,1.58,1.253,2.342.163.327-.109.817.327.981-.054.381.491.544.327.98-.054.163.164.381.218.6.054.163,0,.327.163.435a.413.413,0,0,1,.109.218c-.109.654.436,1.09.6,1.634.054.272.382.382.272.708s.382.491.272.817c.273.163.164.491.273.708a9,9,0,0,0,.654,1.253c.109.218.054.491.218.6.218.163.109.382.163.6,0,.109.163.218.218.327a4.765,4.765,0,0,1,.382,1.253,4.7,4.7,0,0,0,.708,2.07c.11.163.055.327.055.491a1.639,1.639,0,0,0,.272,1.089c.272.6.054.382.054,1.035a1.285,1.285,0,0,1-.6.872M37.1,70.191c.054,0,.109-.054.163-.109l-.163-.163-.163.163.109.109Zm-.163,2.56.109.164.163-.164-.109-.109c-.054,0-.109.054-.163.109m.491-3.214c-.055.055-.11.11-.11.164l.11.109.163-.163-.163-.163Zm.381,2.615v-.327c0-.163-.054-.272-.218-.272h-.163c-.11.054-.11.109,0,.218a1.093,1.093,0,0,1,.218.436.109.109,0,1,0,.218,0v-.273ZM37.7,67.3c-.054.054-.109.109-.109.163l.109.109.163-.163L37.7,67.25Zm1.089-1.634.218.163c.054-.054.163-.109.163-.163a.5.5,0,0,1,.218-.435q.163-.083,0-.164a.2.2,0,0,0-.163-.054q-.164,0-.491.327c-.163.163.054.163.109.272Zm.817.98v-.109l-.163-.163c-.109-.109-.163-.163-.218-.163a.588.588,0,0,0-.11.218,3.358,3.358,0,0,0-.272.654c0,.054.109.163.164.218a.247.247,0,0,0,.272,0,4.065,4.065,0,0,0,.381-.654Zm.926-3.486a4.727,4.727,0,0,1,.054-.6c0,.109-.054.218-.054.327V62.51q0-.245-.163-.163c-.054,0-.054.054-.109.109l-.163.163c-.327.327-.272.6.163.872.054,0,.218-.054.218-.109Zm-.109,3.16a.217.217,0,0,0-.218-.109c-.109,0-.163,0-.218.109v.054a.417.417,0,0,0,.218.109c.109,0,.218-.054.218-.109Zm.109-3.977h.11a.191.191,0,0,0,.054-.109c.273.109.382.491.708.491h.109a.813.813,0,0,0,.11-.164c-.164-.109-.273-.218-.218-.435.054-.382-.327-.6-.381-.926h-.109c-.054.054-.11.109-.11.163-.054.272.11.545-.163.763Zm1.035,1.471c.11-.054.11-.109.055-.218-.164-.163-.218-.272-.327-.272-.054,0-.163.109-.327.272-.109.11-.109.164,0,.218a.592.592,0,0,0,.272.054.408.408,0,0,0,.272-.054Zm.327-4.3c.109-.164.381-.273.327-.545v-.163a.411.411,0,0,0-.054-.273c-.054-.109-.109-.054-.163.055a2.514,2.514,0,0,1-.381.381c-.164.163-.11.218.163.49.109.11.109.11.163,0Zm.817,3.922v-.163l-.218-.163a.542.542,0,0,0-.273.218.166.166,0,0,0,0,.218c.054.164.163.11.273,0l.163-.163Zm-.272-3,.054-.054-.164-.218v.164Zm.327,1.634a.776.776,0,0,0-.109-.327l-.163.327.163.218c.054-.054.163-.109.163-.163Zm.381-5.556c0-.054-.054-.054-.109-.054H42.71c-.054,0-.11,0-.11.054v.054a.285.285,0,0,0,.218.109.413.413,0,0,0,.218-.109Zm.218-2.124c.054,0,.109-.055.163-.11l-.163-.163-.164.163.11.11Zm1.253,9.369c0-.218.109-.436-.109-.6h-.163a1.534,1.534,0,0,1-.817.327c-.218,0-.272.109-.272.327a.246.246,0,0,0,.163.163H44.4a.19.19,0,0,0,.272-.163ZM43.473,50.635c-.109.054-.218.109-.055.218a.8.8,0,0,1,.11-.163v-.109h-.054Zm.109-.163v.054h.054l.163-.163-.109-.109-.163.163Zm.491,2.887c0-.054-.055-.054-.11-.054h-.327c-.054,0-.109,0-.109.054v.054a.283.283,0,0,0,.218.109.413.413,0,0,0,.218-.109ZM43.582,63c.054,0,.109-.054.163-.054v-.054c-.054,0-.109.054-.163.109m.491-11.657c0,.054.054.109.108.163l.273-.382c.163-.327.163-.381-.054-.6-.054-.054-.109-.109-.163-.109a.117.117,0,0,0-.109.109.592.592,0,0,0-.054.272Zm.381-2.833a.8.8,0,0,0-.109.164l.327.327a.92.92,0,0,0,.109-.272c0-.218.054-.436-.109-.491-.054,0-.218.163-.327.272Zm5.72,12.039c.49,0,.926-.545.653-.926a2.231,2.231,0,0,1-.218-1.308c0-.272,0-.545-.272-.708a7.317,7.317,0,0,0-.708-1.47l-.708-1.471c-.218-.545-.544-1.035-.763-1.58a.776.776,0,0,0-.872-.491c-.054,0-.163.055-.163.109a2.658,2.658,0,0,0-.054.654c0,.273-.436.382-.327.708.109.382-.273.654-.273.98a6.762,6.762,0,0,1-.98,1.689,2.013,2.013,0,0,0-.381.763c-.054.327.109.708-.273.981v1.144c0,.109,0,.272-.054.327-.218.163-.054.218.054.327a.531.531,0,0,0,.491.218h4.9Zm-5.23-13.836c-.054,0-.109.11-.109.11l.382.327.381-.436c-.054-.054-.109-.109-.163-.109H45.27a.411.411,0,0,0-.273.054Zm.491-2.451c0,.055.054.109.109.164l.11-.109V43.99Zm.436,3.977a.283.283,0,0,0,.218.109.413.413,0,0,0,.218-.109v-.054l-.218-.163c-.054.054-.218.163-.218.218m.327-5.066c0,.054.054.109.109.163l.109-.109V42.9Zm2.342,4.086c0-.054-.054-.109-.054-.163s0-.054.054-.109a1.584,1.584,0,0,1,.817-.763h.163c.109-.054.109-.163.109-.273v-.163a.245.245,0,0,0-.163-.163c-.109,0-.327.054-.327.109,0,.491-.436.654-.654.98a.693.693,0,0,1-.6.273h-.218l-.218-.327c-.054,0-.109.109-.163.164l.327.327a.562.562,0,0,0,.435.218.33.33,0,0,0,.218-.054l.163.163c.055-.054.164-.109.164-.163Zm-.872,16.178A2.449,2.449,0,0,0,47.559,63a2.466,2.466,0,0,0-.11.435l.164-.163Zm.817-16.342a.2.2,0,0,1-.055-.163l-.163.327v.054Zm0-1.961c-.055,0-.109.054-.163.11l.108.109c.055,0,.11-.054.164-.054v-.054Zm-.055-.926v.654a.118.118,0,0,0,.11.109H48.7c.272,0,.327-.272.49-.381v-.054c-.163-.164-.435,0-.544-.273h-.109Zm.436,4.631-.054.054L48.92,49h.164Zm.327,15.688-.163-.164-.109.11c0,.054.054.109.054.163ZM49.138,44.1c.054,0,.163-.163.218-.218l-.164-.218h-.054c-.164.109-.164.381,0,.435m1.307,3.432-.109.109c.054.054.109.11.163.11l.109-.11Zm-.054-.98a.283.283,0,0,0,.218.109.413.413,0,0,0,.218-.109V46.5l-.218-.163c-.054.054-.218.163-.218.218m.654,3.649-.109.11-.218-.163c-.055.054-.218.163-.218.218.054.109.109.109.218.109a.2.2,0,0,0,.163-.054l.109.054h.327Zm-.327-3.213.108.163.164-.163c-.054-.054-.109-.11-.164-.11Zm.272,1.089c-.327.272-.327.272,0,.545a.2.2,0,0,0,.163.054c.054-.054.109-.109.109-.164v-.327c0-.054-.054-.109-.109-.163a.2.2,0,0,0-.163.054m-.054,2.234-.054.054v.054l.054-.054Zm.109,2.778h.109v-.054c-.054-.109-.109-.218-.218-.054,0,.054.054.109.109.163Zm.218.381c.163.054.272,0,.272-.109V53.25l-.327-.109c-.109-.054-.163,0-.109.109a.117.117,0,0,0,.109.109h.163Zm.654.817a.19.19,0,0,0,.109-.054,1.094,1.094,0,0,0-.218-.435H51.7a.766.766,0,0,0-.11.327c0,.218.218.218.382.218Zm-.218-3.16.163.164.109-.109v-.164Zm.708,2.288.164-.163-.11-.109L52.3,53.3v.109c-.163,0-.218.109-.218.273a.283.283,0,0,0,.218-.109l.163-.164ZM52.3,52.052l-.163.163.163.163c.054-.054.109-.109.109-.163l-.109-.109Zm.218,2.941-.164-.163-.109.109V55.1Zm.435,9.479-.163-.164-.109.11c0,.054.054.109.054.163Zm.6-4.739c0-.109-.11-.109-.218-.109a.218.218,0,0,0-.218.109v.054a.283.283,0,0,0,.218.109.413.413,0,0,0,.218-.109Zm.654-1.525v-.163c-.054,0-.109-.054-.164-.054l-.6.544c-.108.11-.108.164,0,.218.055.054.164.109.218.054l.491-.436Zm2.506,7.9v-.381a2.624,2.624,0,0,0-.055-.654c0-.054-.163-.109-.272-.109-.163,0-.327.273-.218.382a.9.9,0,0,1,.272.817.19.19,0,0,0,.054.109c.054,0,.163-.054.163-.109Zm.817,2.451c-.055-.054-.11-.163-.164-.163h-.054V68.23c.054-.054.273-.109.109-.272a.247.247,0,0,0-.272,0,.584.584,0,0,0-.109.327c0,.054.054.109.109.163a.548.548,0,0,0,.054.163c0,.11.109.218.163.327l.164-.163Zm-.218-.163c-.109,0-.163,0-.163.054.109.054.163,0,.163-.054m.654.98c.054,0,.163.054.218.054s.109-.054.164-.109l-.218-.163-.327.163c.054.054.054.109.109.109Zm.491,2.234-.164-.218h-.054c-.163.109-.163.381,0,.435.054,0,.164-.163.218-.218m.435-2.288c-.054,0-.109.109-.163.164.054.054.109.163.163.163a.772.772,0,0,0,.327-.11.789.789,0,0,0-.327-.109Zm-.163,4.194c.054,0,.109-.054.163-.054V73.4c-.054,0-.109.054-.163.109m.436-1.035L59,72.261h-.054c-.163.109-.163.381,0,.435.054,0,.163-.163.218-.218m.381-1.307v-.164l-.109-.109-.164.164Zm.763,2.941a.19.19,0,0,1-.109.054h-.327a.305.305,0,0,0-.272.327c-.054.163.054.272.163.163a.567.567,0,0,1,.436-.218.245.245,0,0,0,.163-.163.238.238,0,0,0-.054-.163m-.327-1.089c-.055,0-.11.054-.164.109l.491.435.163-.163c0-.163-.054-.272-.218-.272h-.109Zm.544,1.144L60.686,74l-.109-.109-.163.163h-.054v.054h.054Z" transform="translate(-11.077 -14.111)" fill="#fff"/><path d="M114.825,78.02V41.85l-2.179-.98h7.3l22.661,31.158V41.85l-2.179-.98H145.6l-2.179.98V79h-.817L115.642,41.85V78.02l2.179.98h-5.175Z" transform="translate(-38.774 -14.068)" fill="#fff"/><path d="M212.338,80.509q-.488.075-.938.113t-.863.037a11.418,11.418,0,0,1-4.185-.769,33.072,33.072,0,0,1-3.885-1.82,14.726,14.726,0,0,1-3.735-3.022,23.672,23.672,0,0,1-2.946-4.091,33.3,33.3,0,0,1-2.195-4.636,42.632,42.632,0,0,1-1.483-4.579,11.213,11.213,0,0,1-.413-3.059,25.981,25.981,0,0,1,.188-3.134,20.553,20.553,0,0,1,2.289-7.526,28.744,28.744,0,0,1,4.654-6.362,12.789,12.789,0,0,1,3.191-2.383,15.073,15.073,0,0,1,3.828-1.408c.2-.05.406-.094.619-.131a1.148,1.148,0,0,0,.544-.244,6.175,6.175,0,0,1,1.614-.976,11.594,11.594,0,0,1,1.9-.6,13.7,13.7,0,0,1,2.027-.3q1.032-.075,1.933-.075,1.313,0,2.589.094t2.59.169a9.462,9.462,0,0,1,3.341.732,14.863,14.863,0,0,1,2.927,1.67,28.29,28.29,0,0,1,2.308,1.933q1.107,1.033,2.2,2.083a9.846,9.846,0,0,1,2.139,3.022,20.1,20.1,0,0,1,1.2,3.547q.524,2.252,1.144,4.448a18.958,18.958,0,0,1,.694,4.56,20.974,20.974,0,0,1-1.032,7.319,37.08,37.08,0,0,1-3.021,6.681,6.127,6.127,0,0,1-.676.9q-.376.413-.788.826a37.556,37.556,0,0,1-3.546,2.872,24.18,24.18,0,0,1-3.792,2.215,22.19,22.19,0,0,1-4.109,1.445,18.83,18.83,0,0,1-4.5.526h-.9a5.5,5.5,0,0,1-.9-.075m-4.354-21.094a10.059,10.059,0,0,0,.713,4.41,41.5,41.5,0,0,0,2.027,4.373,2.857,2.857,0,0,0,1.051,1.126,2.683,2.683,0,0,0,1.388.375,2.4,2.4,0,0,0,1.014-.225,9.13,9.13,0,0,0,2.477-1.352,9.382,9.382,0,0,0,1.933-1.989,9.257,9.257,0,0,0,1.257-2.477,9.651,9.651,0,0,0,.488-2.815c.024-.426.069-.838.131-1.239s.106-.813.132-1.239q.037-1.2,0-2.346a13.933,13.933,0,0,0-.263-2.27,10.267,10.267,0,0,0-.694-2.177,8.463,8.463,0,0,0-1.257-1.99,5.4,5.4,0,0,0-4.2-2.026,4.75,4.75,0,0,0-2.459.675,3.919,3.919,0,0,0-1.67,1.99,42.263,42.263,0,0,0-1.5,4.3,15.886,15.886,0,0,0-.563,4.9" transform="translate(-65.984 -12.234)" fill="#fff"/><path d="M314.4,73.378a6.946,6.946,0,0,0,1.268,3.113,5.535,5.535,0,0,0,1.653,1.615,2.781,2.781,0,0,0,.923.346H305.325a.9.9,0,0,0,.384-.115,8.81,8.81,0,0,0,.807-.5,5.648,5.648,0,0,0,1.038-.883,5.99,5.99,0,0,0,.923-1.461,8.9,8.9,0,0,0,.692-2.114v-19.6a14.266,14.266,0,0,0-.462-2.537,9.11,9.11,0,0,0-1.46-2.959,6.8,6.8,0,0,0-2.614-2.23,5.684,5.684,0,0,0-4.15.115A18.479,18.479,0,0,0,294.64,49.7l-1.23,1.23A2.239,2.239,0,0,0,292.8,52.7V73.378a6.972,6.972,0,0,0,.615,2.114,6.01,6.01,0,0,0,.961,1.5,6.114,6.114,0,0,0,1,.884,4.535,4.535,0,0,0,.884.5l.308.077H283.725a.692.692,0,0,0,.346-.115c.127-.077.384-.243.769-.5a6.974,6.974,0,0,0,1.076-.883,5.327,5.327,0,0,0,.961-1.461,7.028,7.028,0,0,0,.615-2.114V50.24q0-2-2.46-3.075l-1.537-.538,4-1.691,5.3-2.306v6.841l.308-.307q3-2.076,4.535-3.075,1.69-1.153,2.537-1.691a14.555,14.555,0,0,1,2.422-1.153,8.157,8.157,0,0,1,2.96-.615,10.258,10.258,0,0,1,3.613.692c.256.1.512.205.769.308a9.084,9.084,0,0,1,2.306,1.537A5.475,5.475,0,0,1,314.4,49.7Z" transform="translate(-97.582 -14.674)" fill="#fff"/><path d="M217.586,300.143c-.51.662-.2,1.424-.255,2.137q-.076,1.755,0,3.511c.051.814-.254,1.679.255,2.442v2.748c-.407.2-.153.662-.357.916s-.2.661-.559.814c-.051,0-.051.051-.1.1l-1.068.916H213.82c-.306-.407-.916-.1-1.222-.56-.152-.2-.356-.509-.712-.458a.178.178,0,0,1-.1-.051c.051-.458-.509-.559-.56-.967,0-.1-.1-.2-.152-.3a.643.643,0,0,1-.051-.306v-3.816a1.254,1.254,0,0,0-.2-.56.945.945,0,0,1,.05-.967.724.724,0,0,0,.1-.153c-.356-.458-.1-.967-.2-1.424.407-.357.2-.865.254-1.323-.509-.458-.2-1.068-.254-1.577-.051-.356.356-.611.254-1.018a4.425,4.425,0,0,1-.051-1.171,8.923,8.923,0,0,0,0-1.17c-.051-.306.306-.407.254-.712-.05-.255,0-.51-.05-.763-.1-.713.254-1.476-.2-2.188-.1-.153,0-.407,0-.611v-2.9c0-.509-.407-.559-.763-.559a2,2,0,0,0-.713.407c-.661.611-1.272,1.272-1.883,1.883-.356.814-1.119,1.272-1.628,1.934-.153.2-.458.1-.611.356-.152.2-.407.356-.559.56a3.552,3.552,0,0,1-.662.865,2.781,2.781,0,0,0-.661.865c-.1.254-.407.458-.662.661a2.347,2.347,0,0,0-.814,1.171.723.723,0,0,1-.763.509c-.2,0-.356.2-.559.254a1.26,1.26,0,0,1-.407.051,1.189,1.189,0,0,1-1.018-.509c-.2-.254-.407-.509-.763-.509a2.094,2.094,0,0,0-.356-.662l-2.9-2.9c-.508-.509-2.238-2.289-2.289-2.8a5.566,5.566,0,0,1-.865-.662,12.1,12.1,0,0,1-1.171-1.119.992.992,0,0,0-.763-.306H189.9a.23.23,0,0,0-.152.153c.1.306-.306.407-.255.662.051.2-.051.509.051.611.254.254.2.559.2.865v2.29c0,.3.1.661-.2.967-.1.1-.051.407-.051.611,0,.3-.152.662.2.916-.356.254-.254.611-.254.915v4.274c0,.306-.1.662.254.916.051,0-.051.2-.1.3l-.153.153c.458.56.1,1.221.2,1.832a.941.941,0,0,1-.1.357c-.254.254-.1.559-.152.814.407.356.254.865.254,1.323v2.443c0,.254.153.559-.1.814-.2.2,0,.509-.1.713a1.944,1.944,0,0,1-1.018,1.272c-.2.051-.407.254-.559.2-.356-.051-.509.3-.814.3h-1.068c-.306-.407-.916-.1-1.171-.559-.153-.306-.712-.2-.763-.56s-.356-.509-.458-.763c-.153-.3-.407-.559-.407-.915,0-.458.153-.916-.254-1.272a.233.233,0,0,1,0-.254c.254-.153.2-.407.2-.662v-1.221c.508-.611.152-1.374.254-2.036-.407-.356-.2-.865-.2-1.323v-1.221c.458-.356.2-.865.254-1.323a12.307,12.307,0,0,0,0-1.374c0-.254-.3-.356-.254-.661.051-.254,0-.509.051-.763.1-.611-.2-1.272.254-1.832.1-.1.05-.357.05-.51v-2.747c0-.306.1-.611-.2-.814-.051,0-.051-.051-.051-.1v-2.9c.407-.407.2-.915.254-1.374,0-.1.1-.2.153-.3.1-.254.1-.254,0-.458-.051-.1-.153-.2-.153-.3a7.454,7.454,0,0,0,0-1.069c-.05-.559.2-1.17-.254-1.679-.1-.1-.05-.356-.05-.509v-3.053c0-.3-.1-.611.152-.915.2-.2.051-.611.357-.865.051-.407.356-.56.712-.611.1-.2.3-.2.509-.2a.443.443,0,0,0,.458-.2h.611a3.88,3.88,0,0,1,.763.051,3.088,3.088,0,0,1,2.443,1.018c.153.254.509.407.559.662.1.407.407.559.611.814s.509.407.611.662c.254.611.814.916,1.222,1.374.152.2.458.306.407.662l.611.611c.407.356.713.915,1.323,1.068.254.306.661.509.814.916.153.458.662.611.763,1.018.153.509.611.661.865,1.018.712.2,1.018.865,1.527,1.272a.41.41,0,0,1,.2.458c.306.2.306.611.611.865a1.213,1.213,0,0,0,.916.254h.1c.306-.356.763-.56.916-1.018l.2-.306c.153-.3.2-.712.713-.661l.915-.916c.153-.153.254-.407.56-.356.05,0,.1-.1.153-.153.3-.254.3-.662.661-.916a5.72,5.72,0,0,0,.814-.763l.763-.763c.255-.254.51-.56.814-.814.254-.254.254-.661.56-.916a17.961,17.961,0,0,0,1.679-1.73,5.282,5.282,0,0,1,.611-.865c.2-.2.611-.356.56-.763.254-.254.559-.508.814-.814.357-.407.967-.407,1.374-.763a.188.188,0,0,1,.153-.051h2.443c.05,0,.1.1.152.152.2.153.306.407.611.407.153,0,.356.254.407.407.1.3.407.559.254.915a.731.731,0,0,1,.254.763.712.712,0,0,0,.153.458c.2.2-.153.2-.153.356v15.57c0,.306-.051.662.254.916Zm-31.8-16.792v.051c.2.1.458.1.61.356.051-.051.1-.1.1-.153,0-.254-.051-.3-.356-.3h-.306a.109.109,0,0,0-.1.1Zm-.051,17.1.1.153.153-.153c-.051-.051-.1-.1-.153-.1Zm.407-14.96v.356c0,.051.1.1.152.153a.176.176,0,0,0,.051-.1v-.458c0-.051-.051-.153-.1-.153-.254-.051-.051.153-.2,0h.1v-.051c-.051-.1-.1-.2-.2-.051,0,.051.051.1.2.3m.458,21.779h-.356c-.1.051-.153.2-.2.3l.153.2.356-.357a.185.185,0,0,0,.051-.152m1.119-16.843c0-.051-.1-.153-.1-.153-.1.1-.2.254-.407.254a3.88,3.88,0,0,0-.763.051c-.1,0-.153.1-.2.153,0,.306-.051.509.152.662.1.05.153.254.306.153a.38.38,0,0,0,.051-.254c.051-.356.051-.458.152-.458a1.324,1.324,0,0,1,.356.153.179.179,0,0,1,.1.051c.153,0,.407-.407.356-.56Zm-1.171,2.7v-.254l-.153-.153c-.051.051-.152.1-.152.153a.724.724,0,0,0,.1.306c.051-.051.1-.051.1-.1Zm-.2,6.768a.718.718,0,0,0-.1.3c0,.051.1.1.152.153l.153-.153v-.254c0-.05-.05-.05-.1-.1Zm.051-18.42c-.2.2-.2.2.1.3s.3.153.05.56c-.05.1-.1.152,0,.2a2.209,2.209,0,0,1,.254.051.82.82,0,0,0,.56-.254.876.876,0,0,0,.1-.611v-.3c0-.153-.1-.153-.2-.153h-.407a.561.561,0,0,0-.458.153Zm.2,17.656c-.051-.254.356-.356.3-.611,0-.051-.05-.1-.1-.153h-.051c-.153.153-.407.254-.357.56v.152c0,.051.051.1.1.153,0,0,.1-.05.1-.1m-.051,4.325a.322.322,0,0,0-.1.458c0,.05.051.05.1.1a1.344,1.344,0,0,0,.254-.306l.1-.153a.727.727,0,0,0-.3-.1Zm.712,1.221-.152-.3c-.051-.153-.1-.2-.153-.2l-.1.1-.458.712c0,.051.051.153.1.153a1.339,1.339,0,0,1,.356.051v-.051h.3c.2,0,.254-.153.1-.458m-.611-9.21c.051-.05.153-.152.2-.152s.1.051.152.1.407-.153.407-.254c0-.153-.1-.153-.2-.2a1.755,1.755,0,0,1-.407-.254c-.153.051-.407.458-.356.611,0,.051.153.1.153.1Zm0,1.119-.1.1.153.153.153-.153c-.051-.051-.1-.1-.153-.1Zm.866,1.578c.2-.153.1-.407.1-.611a.232.232,0,0,0-.254-.2h-.611c-.051,0-.1.051-.153.051a.189.189,0,0,0,.05.153,2.686,2.686,0,0,0,.509.559.23.23,0,0,0,.254,0Zm-.662,1.577a2.258,2.258,0,0,0,.407-.1,2.258,2.258,0,0,0-.407-.1c-.051,0-.1.1-.153.153.051.051.1.152.153.152ZM186.7,309.81l.1.153.153-.153c-.051-.051-.1-.1-.153-.1Zm.356-8.548.458-.407c.05-.051,0-.153,0-.254a.754.754,0,0,0-.153-.1l-.56.509c-.1.05-.1.1,0,.153.051.051.153.1.2.051Zm.254.559.1-.1-.1-.153-.1.1c0,.05.051.1.1.152m.407-9.515-.2-.153c-.1.051-.255.1-.255.2a1.4,1.4,0,0,0,0,.458.11.11,0,0,0,.1.1h.05c.1-.2.1-.458.306-.611m-.356,3.765.153-.152-.153-.153c-.051.051-.1.1-.1.153l.1.1Zm0,.509-.1.1c0,.051.051.1.1.153l.1-.1c0-.051-.051-.1-.1-.153m.1,8.8-.1-.051h.1l-.1-.1h-.051v.153Zm0,0h0Zm.1-18.318.1-.2h-.051c-.1.051-.2.1-.051.2m1.476-3.155.153-.153-.153-.153-.1.1c0,.051.051.1.1.153Zm2.34,3.714c.2-.1.306-.407.56-.458.05,0,.05-.254.05-.356,0-.051-.152-.1-.152-.1l-.611.611a.385.385,0,0,1-.2.1c-.1,0-.153-.051-.254-.051-.2.051-.254-.153-.407-.2h-.1a.381.381,0,0,0-.254.051c-.153.2-.153.407.559.407a5.316,5.316,0,0,0,.814-.05Zm-.611.254a.267.267,0,0,0,.2-.1l-.713.153h.458Zm1.374-.356h.306c0-.254-.051-.306-.407-.306h-.1v.051Zm1.272,1.323c.254-.254.254-.356,0-.611a.621.621,0,0,0-.458-.2.719.719,0,0,0-.611.356.432.432,0,0,0,0,.356c.05.051.05.1.1.1s.1-.1.153-.152c.1-.1.1-.1.2,0l.407.458.2-.2Zm-.916-1.018c0-.05,0-.1-.1-.1Zm.2-.814a.385.385,0,0,0-.1.2c0,.051.051.1.1.153.05-.051.1-.1.1-.153a1.084,1.084,0,0,1,.051-.3l.153-.153s-.051-.051-.153.153a.386.386,0,0,1,.05-.2l-.153.152v.1h-.1a.11.11,0,0,0-.1.1Zm.05-.051v0Zm3.155,4.732a.519.519,0,0,0,.407.255.576.576,0,0,0,.407-.153c.255-.254.255-.254,0-.56-.1-.153.051-.153.1-.254,0-.05.051-.1.1-.153-.3-.2-.2-.508-.254-.763-.051-.153-.306-.255-.458-.357-.051-.051-.2.051-.306.153s-.153.153-.153.051a1.48,1.48,0,0,0-.356-.611,5.25,5.25,0,0,1-.458-.662l-.2-.1c-.051.051-.1.1-.1.153v.356c-.1.559-.1.559.1.763l1.374,1.375c.1.1.1.152-.051.407-.051.051-.1.1-.153.1m5.648,3.1a.718.718,0,0,0,.559-.713.362.362,0,0,0-.152-.3c-.051-.051-.2,0-.306.051-.05.051-.153.153-.2.153s-.1-.051-.1-.153a.875.875,0,0,0-.306-.763,1.353,1.353,0,0,1-.306-.254h-.05a.109.109,0,0,0-.1.1c0,.407-.1.865.356,1.119.051.05.1.1-.306.356l.458-.153c-.05.051-.1.1-.1.153a.619.619,0,0,1-.611.3c-.05,0-.152-.051-.2-.051s-.051,0-.051.051v-.1c.1-.1.2-.2.153-.356-.05-.2-.2-.2-.356-.2h-.153c.051-.2-.2-.254-.2-.407,0-.254-.051-.356-.306-.356h-.915c-.306,0-.56-.254-.866-.306-.152,0-.152-.1-.05-.2s.1-.254.153-.407c.051-.1.1-.1.152,0a.38.38,0,0,0,.357.153h.356a.178.178,0,0,0,.1-.051c-.051-.152-.254-.2-.2-.407.05-.153-.051-.254-.2-.254-.3,0-.3-.2-.3-.407h-.153c-.051.458-.458.662-.712.967-.1.1-.153.153-.051.2.306.254.1.3-.153.356-.051,0-.1.1-.152.152.051.051.051.1.1.1a.386.386,0,0,1,.255.05c.3.1.407.56.814.509.051,0,.1.1.1.153,0,.1-.05.254-.05.356,0,.051.05.1.1.153.051-.051.051-.1.1-.1.254-.153.254-.407.407-.611a.185.185,0,0,1,.152-.051c.1,0,.153,0,.2.051a.212.212,0,0,1,.1.3,3.919,3.919,0,0,1-.458.458l.05.152h.2a.6.6,0,0,1,.559.2,3.356,3.356,0,0,0,.865-.1v.1a.641.641,0,0,0,.051.3c.1.2.1.2-.051.356a.452.452,0,0,1-.407.254c-.051,0-.1.1-.1.153a.179.179,0,0,0,.1.051.514.514,0,0,1,.458.152c.2.153.2-.2.356-.2h.1a.257.257,0,0,0,.254-.356v-.356a.24.24,0,0,1,.254-.254c.153,0,.306.051.458.051Zm-2.239.814.153-.153-.153-.152c-.051.051-.1.1-.1.152l.1.1Zm2.29.509a3.7,3.7,0,0,0,.254-.611c-.1-.051-.254-.254-.407-.254s-.051.254-.1.356c-.153.356-.153.356.05.56.1.1.153.152.2.051Zm2.137-2.9v-.1c-.05-.1-.458-.407-.509-.356l-.763.3v.1c.153.1.2.2,0,.3-.1.051-.1.1,0,.2.255.2.153.407-.051.611a.725.725,0,0,0,.1.153h.1c.254,0,.306-.255.458-.357v-.05c-.153-.1-.153-.153-.051-.356.153-.2.2-.458.559-.458Zm8.65-8.65.153-.153-.153-.153-.1.1c0,.051.05.1.1.153Zm.509,1.984c.051,0,.1-.051.153-.1l-.153-.153-.153.153.1.1Zm.153-2.493c.3.05.356-.254.559-.407-.05-.051-.1-.1-.153-.1-.3-.051-.407.254-.611.407.051.051.1.1.153.1Zm.712,20.71c-.051.05-.1.1-.1.153l.1.1.153-.153-.153-.153Zm.356,4.834a.606.606,0,0,1,.56.2s.152-.051.152-.1a.379.379,0,0,0,.051-.254V309.3c0-.152-.051-.2-.1-.2s-.1,0-.153.1c-.1.1-.153.153-.2.051a.314.314,0,0,0-.357-.2h-.3c-.051,0-.1.153-.1.153.153.1.254.356.509.356Zm-.3-18.573.1.1c.051,0,.1-.051.152-.1l-.1-.1c-.051,0-.1.05-.153.1m.356,13.688v-.1c.1.05.153,0,.1-.1a.109.109,0,0,0-.1-.1.387.387,0,0,0-.2-.1c-.051,0-.1.051-.153.1.051.051.1.1.153.1a.611.611,0,0,1,.2.2m-.1-1.018v-.1h-.1c-.1.051-.2.1-.051.2a.652.652,0,0,1,.152-.1m0-2.9-.1-.1a.185.185,0,0,0,.152.051l-.152-.153h-.1c0,.051.051.051.051.1a.05.05,0,0,0-.051.051,1.511,1.511,0,0,0,.2.153Zm.866,6.462c-.051-.356.407-.56.254-.916v-.407c-.05-.05-.1-.1-.152-.1s-.153,0-.153.051a.861.861,0,0,0-.051.356c0,.3,0,.3-.458.712a2.672,2.672,0,0,0-.509.56l.051.051c.051.051.1.1.152.1.357-.051.662-.357,1.069-.306l.05-.051Zm-.916,3.053c.05-.051.1-.1.1-.153l-.1-.1-.153.153.153.153Zm-.1-9.719.1.153c0-.051,0-.051-.1-.153m.051.1h0Zm1.017,3.409c.051,0,.356-.407.306-.458a.414.414,0,0,1-.2-.407c0-.051-.153-.1-.611.2l.458-.356h-.2a.837.837,0,0,0-.611.356c-.1.1-.051.153,0,.153s.051,0,.1-.051h.153c.254,0,.458.051.458.407a.109.109,0,0,0,.1.1Zm-.661-4.987a.39.39,0,0,0-.2.1,4.242,4.242,0,0,0,.356.662c0,.05.153,0,.254,0l-.05-.153a.463.463,0,0,1-.2-.407c0-.1,0-.152-.05-.152s-.153.05-.2.05Zm1.221,3.257a.385.385,0,0,1-.1-.2c-.1-.559-.407-.611-.916-.611h-.306a.11.11,0,0,0-.1.1v.05c.153.153.306.356.611.306.254-.051.357.1.357.356,0,.051.2.1.3.1.051,0,.1-.051.153-.1m-1.272,2.341v.051c0,.05,0,.05.051.1v.306c0,.254.05.3.407.3h.153a.245.245,0,0,0,.2-.356,2.256,2.256,0,0,1-.306-.611c0-.051-.2-.051-.306-.1s-.152,0-.1.1Zm.2-6.615a5.449,5.449,0,0,0,.1,1.119.989.989,0,0,1,.356.051l.153.152s0-.05-.1-.152h.153l-.153-.153h-.05c0-.2-.051-.407.153-.56.05,0,.05-.05.1-.1l-.61-.611s-.153.1-.153.153Zm.967,12.721c.05,0,.1-.1.152-.153-.05-.051-.1-.1-.152-.1h-.2c-.152,0-.254,0-.356-.152a.383.383,0,0,0-.2-.051c-.051,0-.051.051-.051.2v.306a.234.234,0,0,0,.306.254c.2-.051.254-.306.509-.254Zm-.662-16.232-.1.1.1.1c.05,0,.1-.051.153-.1Zm.2-9.515-.1.1c0,.051.051.1.1.152l.153-.152-.153-.153Zm-.1,14.909.1.1.153-.153-.153-.152c-.05.051-.1.1-.1.152Z" transform="translate(-62.955 -95.887)" fill="#fff"/><path d="M268.322,302.458a.131.131,0,0,1-.143-.085c-.019-.057.009-.1.086-.143a.135.135,0,0,1,.142.114c.019.077-.01.114-.085.114m40.858-4.451a.975.975,0,0,1-.257.428c-.171.21-.22.353-.142.428l.056.171a.2.2,0,0,0-.171-.028.693.693,0,0,0-.171.256q-.228.4-.057.456c.076.039.076.057,0,.057-.038-.037-.085-.018-.142.057a.992.992,0,0,0-.143.285,2.193,2.193,0,0,1-.114.286c-.038.077-.077.114-.114.114-.077-.114-.162-.066-.256.142s-.067.257.085.143c.037,0,0,.077-.114.228-.3.342-.456.552-.456.628s-.057.1-.171.057q-.229-.113-.085.085c.094.134.066.182-.086.143-.077-.076-.114-.057-.114.057s-.039.171-.114.171c-.038,0-.057.039-.057.114a.711.711,0,0,1-.143.257c-.1.134-.142.142-.142.028,0-.037-.057.01-.171.143s-.267.3-.456.485a3.713,3.713,0,0,0-.457.571.9.9,0,0,0-.171.228.417.417,0,0,1-.256.2c-.1.02-.181.143-.257.371-.077.266-.142.38-.2.342s-.181.038-.371.228a2.5,2.5,0,0,1-.456.456c-.077.077-.114.134-.114.171q.056.115-.171.342c-.152.153-.267.228-.342.228s-.114.057-.114.171-.038.153-.114.114c-.039-.037-.057-.018-.057.057q-.229.286-.856,1.085a14.983,14.983,0,0,1-1.142,1.312q-.342.229-.913.6a2.4,2.4,0,0,0-.742.656.138.138,0,0,1-.171.086.138.138,0,0,0-.171.085.968.968,0,0,1-.428.4q-.372.228-.542.342v-.285q-.514.286-.97.485a7.121,7.121,0,0,0-.913.485.754.754,0,0,1-.257.171c-.1.038-.142.038-.142,0l-.057.057q-.058.115-.371.171c-.209.039-.333.1-.371.171q-.058.058-1.541.628h-.057a.164.164,0,0,1-.114.057,3.059,3.059,0,0,1-1.2.4h-.171a.05.05,0,0,1-.057.057c0,.077-.056.1-.171.057s-.134-.018-.056.057-.02.114-.286.114q-.342-.113-.342.057c-.038.077-.142.114-.313.114s-.277.039-.314.115a.235.235,0,0,1-.228.085c-.077-.018-.1-.066-.057-.142q.114-.114-.029-.058a.772.772,0,0,0-.256.171.327.327,0,0,1-.228.115c-.077,0-.114-.048-.114-.143s-.038-.143-.114-.143c-.039,0-.057.058-.057.171.037.077-.029.143-.2.2a7.441,7.441,0,0,1-1.056.2c-.456.038-.666.02-.628-.057.076-.076.076-.1,0-.086a.508.508,0,0,0-.228.143.386.386,0,0,1-.342.171c-.153,0-.228-.057-.228-.171,0-.076-.01-.114-.028-.114s-.049.038-.086.114a1.437,1.437,0,0,1-.656.2c-.362.057-.561.049-.6-.028,0-.076-.02-.114-.058-.114s-.048.028-.028.085a.538.538,0,0,1,.028.171c0,.057-.019.086-.056.086a.829.829,0,0,1-.286-.171q-.285-.171-.113-.057c.113.077.037.114-.229.114s-.418-.037-.456-.114q-.171-.114-.114.057c.076.077.076.1,0,.085a.133.133,0,0,1-.114-.142q-.057-.171-.342-.171-.228,0-.171.114.4.286-.171.114-.286-.056-.171-.2a.352.352,0,0,1,.285-.142.327.327,0,0,0,.228-.114q.056-.114.342-.086a.659.659,0,0,1,.4.143q.342.228.514-.086t.228-.143c-.039.077.094.1.4.058s.456-.019.456.057c-.039.077.009.1.142.085s.2-.066.2-.142q.056-.171.171-.058c.114.039.171.02.171-.056q.171-.4-.456-.229l-.285.058c.037-.076.009-.143-.086-.2a.19.19,0,0,0-.256.029.485.485,0,0,1-.4.085c-.19-.018-.3.028-.342.142-.038.153-.085.143-.142-.028s-.142-.18-.257-.028l-.114.056q.114-.113-.057-.228a.252.252,0,0,0-.4-.058q-.229.171-.285,0c.037-.037-.01-.075-.142-.114s-.181-.018-.143.057.009.134-.085.171-.143.02-.143-.056-.057-.115-.171-.115-.152.039-.114.115.018.113-.057.113c-.039,0-.1-.037-.171-.113q0-.114-.342-.229c-.228-.075-.362-.057-.4.057-.077.191-.114.21-.114.057s-.1-.151-.285,0c-.115.077-.171.106-.171.086v-.114a.54.54,0,0,0-.029-.171c-.02-.057-.1-.086-.257-.086a3.351,3.351,0,0,1-.371-.057c-.21-.037-.428-.085-.656-.142s-.4-.094-.513-.114-.1.028.057.142c.114.039.114.114,0,.228-.077.153-.114.153-.114,0q0-.342-.8-.628a1.245,1.245,0,0,1-.456-.171.383.383,0,0,0-.343-.057c-.038.039-.056.039-.056,0,.037-.075,0-.114-.115-.114a3.975,3.975,0,0,1-1.141-.456,4.963,4.963,0,0,0-1.084-.4.1.1,0,0,1-.114-.114q.171-.171-.171-.057a1.379,1.379,0,0,1-.513-.285q-.514-.456-.571-.143t.342.257c.151-.076.209-.037.171.114a.336.336,0,0,0,.057.342q.113.115-.057.171c-.077.038-.171,0-.286-.114a.493.493,0,0,1-.171-.342c0-.076-.048-.114-.142-.114s-.124-.037-.085-.114a.1.1,0,0,0-.115-.114q-.115.057-.171-.114t-.228-.057c-.114.038-.134.02-.057-.057a.387.387,0,0,0-.057-.571c-.191-.19-.362-.171-.513.058-.039.076-.086.1-.142.085s-.068-.066-.029-.143c.037-.037.019-.056-.057-.056-.077.076-.134.048-.171-.086s-.1-.2-.171-.2a.16.16,0,0,1-.057-.114c0-.075-.1-.209-.285-.4-.153-.114-.228-.2-.228-.256s-.057-.143-.171-.257a2.166,2.166,0,0,1-.428-.428,6.053,6.053,0,0,1-.485-.685q-.228-.37-.4-.685a1.485,1.485,0,0,1-.171-.371.517.517,0,0,1-.2-.313.958.958,0,0,0-.2-.371c-.077-.037-.114-.066-.114-.085a.221.221,0,0,1,.028-.086.339.339,0,0,0,0-.2,1.729,1.729,0,0,0-.256-.485,1.183,1.183,0,0,1-.114-.685c0-.38-.038-.59-.114-.628-.039-.037-.039-.114,0-.228a.41.41,0,0,0-.057-.457c-.038-.152-.038-.228,0-.228.075.077.143.067.2-.028a.6.6,0,0,0,.086-.314,3.478,3.478,0,0,1,.285-1.141q.284-.741.4-1.084c-.039-.114.029-.218.2-.314s.237-.2.2-.314c0-.114.029-.151.086-.114s.1.02.142-.057c-.038-.075.038-.218.229-.428s.285-.351.285-.428q0-.171.171-.085c.113.057.171-.086.171-.428,0-.114-.058-.094-.171.057-.077.191-.153.228-.229.114v-.171l.115-.057c-.077-.228-.057-.342.056-.342s.276-.133.485-.4.371-.323.485-.171a.19.19,0,0,1,.028.256q-.086.144-.256.029-.115-.114-.228.057c-.114.3-.106.485.028.542s.161-.029.086-.257q-.171-.171,0-.228c.114,0,.171.02.171.057a.172.172,0,0,0,.257,0,.622.622,0,0,0,.2-.342c0-.114.037-.171.114-.171.076-.037.1-.152.086-.342s-.029-.323-.029-.4a2.042,2.042,0,0,0,.085.342c.058.191.086.248.086.171a1.858,1.858,0,0,1,.143-.513c.057-.115.066-.019.028.285l-.057.342a1.91,1.91,0,0,0,.228-.285c.076-.114.151-.171.228-.171.076.038.1-.009.086-.143s.009-.143.085-.028c0,.038.047.028.143-.029a1.718,1.718,0,0,0,.313-.257l.457-.456a.1.1,0,0,0,.113-.114c0-.075.058-.075.171,0,.037.039.133-.018.286-.171s.19-.247.114-.285c-.191-.075-.2-.2-.029-.371s.294-.237.371-.2c.037,0,.094-.037.171-.114a.625.625,0,0,1,.371-.228.85.85,0,0,0,.428-.228q.285-.114.856-.4a3.51,3.51,0,0,0,.685-.4,4.028,4.028,0,0,0-.685-1.142q-.571-.741-.856-1.2a1.592,1.592,0,0,0-.4-.628,2.789,2.789,0,0,1-.228-.428c-.077-.171-.077-.237,0-.2.075.077.1.085.085.028a3.315,3.315,0,0,0-.142-.314,2.284,2.284,0,0,1-.257-.628c-.057-.228-.048-.38.029-.456s.075-.094,0-.057c-.153.077-.171.057-.057-.057a.249.249,0,0,0,.057-.342.236.236,0,0,1,.028-.257.272.272,0,0,0,.086-.2c0-.037-.02-.037-.057,0-.077,0-.1-.151-.057-.456s.018-.437-.057-.4c-.077-.037-.049-.057.085-.057s.161-.057.086-.171c0-.076.037-.094.114-.057s.142-.1.2-.4.123-.475.2-.513c.037-.075.028-.1-.028-.085s-.125.038-.2.057a.248.248,0,0,1-.171,0c-.039-.019-.039-.086,0-.2l.171-.285c.037,0,.057-.057.057-.171s.057-.161.171-.142.114-.029,0-.143-.077-.171.114-.171a.158.158,0,0,0,.029-.228c-.058-.076-.01-.19.142-.342a.648.648,0,0,1,.114-.171.166.166,0,0,0,.057-.114l.057-.114c.076,0,.085.048.029.142s-.029.086.085-.028a.327.327,0,0,1,.228-.114c.076,0,.094.038.057.114-.038.114-.02.171.057.171.076-.037.133-.143.171-.314a.386.386,0,0,0-.057-.371.345.345,0,0,1-.085-.314c.018-.133.066-.18.142-.142q.171,0,.057.228a.151.151,0,0,0,.171.172c.152,0,.209-.115.171-.343s0-.323.115-.285.171.029.171-.028-.077-.123-.229-.2c-.191-.075-.209-.1-.057-.085s.19-.029.115-.143c-.039-.037-.049-.057-.029-.057s.047.039.085.114a.911.911,0,0,0,.286.143c.151.057.209.048.171-.029q-.115-.113.028-.228t-.028-.228c-.077-.151-.114-.132-.114.057,0,.153-.02.191-.057.114a.239.239,0,0,1,0-.228q.056-.113.228-.057c.114.077.161.086.142.029s.009-.047.085.028c.038.077.115.039.229-.114.075-.152.151-.228.228-.228s.2-.123.371-.371.294-.371.371-.371a3.047,3.047,0,0,0,.571-.4q.514-.4.4-.513c-.077-.076-.038-.094.114-.057.151,0,.247-.037.286-.114q.113-.228.113-.115.343-.171,1-.571t1.312-.77q.656-.371,1.2-.628a2.617,2.617,0,0,1,.656-.256.051.051,0,0,0,.058-.057c0-.076.047-.094.142-.057s.143.02.143-.057.057-.114.171-.114a1.782,1.782,0,0,0,.742-.228,5.116,5.116,0,0,1,.856-.342c.3-.038.437-.114.4-.228-.076-.076,0-.115.229-.115s.322.039.285.115c-.038.038-.048.067-.028.085s.047.01.086-.029a.35.35,0,0,0,.085-.4c-.057-.152.066-.115.37.113.152.153.229.172.229.058,0-.152-.039-.19-.114-.115q-.115.058-.057-.056c.037-.076.161-.123.371-.143s.332.01.371.085a.257.257,0,0,0,.285.058.938.938,0,0,1,.285-.058c.076,0,.076-.037,0-.114q-.115-.056.114-.114a.562.562,0,0,1,.4.114c0,.039.057.057.171.057.037,0,.037-.018,0-.057,0-.037.076-.066.228-.085a4.435,4.435,0,0,1,.542-.029h.6a.6.6,0,0,1,.342.057q.056.058.171-.057.056-.056.285,0a.963.963,0,0,0,.4.057h.571q.628,0,.97.029t.286.142c-.039.077.018.106.171.086s.228-.066.228-.143c.075-.075.114-.057.114.057s.151.191.456.229a6.587,6.587,0,0,1,1.084.313,8.442,8.442,0,0,1,1.027.485,3.746,3.746,0,0,1,.914.542,2.019,2.019,0,0,1,.456.6,5.121,5.121,0,0,1,.2.628,1.171,1.171,0,0,1-.143.8.925.925,0,0,0-.143.542.94.94,0,0,1-.142.542c-.039,0-.077.067-.114.2a3.379,3.379,0,0,1-.143.4.913.913,0,0,1-.171.285c-.057.058-.085.029-.085-.085-.039-.151-.115-.2-.228-.142s-.153-.009-.115-.2q0-.227-.114-.2c-.076.02-.057-.028.058-.142a.658.658,0,0,0,0-.742,6.045,6.045,0,0,1-.342-.8,1.1,1.1,0,0,0-.286-.456c-.191-.228-.323-.323-.4-.285a.1.1,0,0,1-.114-.114q0-.113-.171-.057c-.077,0-.114-.057-.114-.171,0-.076-.048-.114-.143-.114s-.1.038-.028.114q.171.342-.456-.114a.968.968,0,0,0-.371-.228.116.116,0,0,0-.114.057.352.352,0,0,1-.057.086c-.02.019-.1-.009-.256-.086a.839.839,0,0,0-.685-.057c-.266.077-.38.057-.342-.057.076-.114-.02-.151-.285-.114a.689.689,0,0,0-.4.085c-.077.057-.171.049-.285-.028-.039-.114-.323-.133-.856-.057q-.8.057-.97.085c-.115.02-.171.067-.171.143,0,.114.056.152.171.114.152-.076.228-.076.228,0s.066.114.2.114.18-.037.143-.114c0-.114.056-.133.171-.057a.383.383,0,0,0,.371.057,2,2,0,0,1,.371-.057,3.391,3.391,0,0,1,.8.114c.3.077.494.077.571,0s.152-.057.228.057c0,.153.057.171.171.057.037-.037.171-.047.4-.028s.342.066.342.142q0,.286-.685.228c-.38-.075-.571-.133-.571-.171s-.01-.057-.028-.057-.029.02-.029.057q-.057.115-.4.057c-.228-.075-.38-.123-.456-.142s-.124-.009-.142.028a.215.215,0,0,0-.029.086c0,.02-.039.009-.114-.029a1.487,1.487,0,0,0-.571-.028q-.457.03-.571-.086c-.077,0-.1.02-.057.057,0,.039-.068.067-.2.086a3.177,3.177,0,0,1-.456.028h-.485a.455.455,0,0,0-.285.057,1.371,1.371,0,0,1-.542.171q-.372.058-1.456.171c-.152.039-.333.086-.542.143s-.371.1-.485.142a6.4,6.4,0,0,0-1.112.371,9.8,9.8,0,0,0-1,.485,7.441,7.441,0,0,0-.714.342c-.285.152-.428.248-.428.285q0,.115-.571.428t-.685.257c-.038-.037-.057-.019-.057.057s-.057.1-.171.085-.134.011-.057.086c.037.077,0,.114-.114.114s-.153.038-.114.114a.936.936,0,0,1-.342.285,2.192,2.192,0,0,0-.4.285,7.907,7.907,0,0,1-.714.742c-.323.3-.523.456-.6.456q-.057,0-.057.114c0,.077-.124.256-.371.542s-.409.428-.485.428q-.171,0,0,.171.114.057,0,.171v.057c-.077,0-.21.134-.4.4a1.957,1.957,0,0,1-.285.485q-.058.03-.171.428c-.114.267-.191.4-.228.4-.077,0-.134.058-.171.171s-.02.191.057.229a.457.457,0,0,1,.057.285,1.062,1.062,0,0,0,0,.713,5.113,5.113,0,0,0,.228.828,4.211,4.211,0,0,0,1.226,1.855,3.948,3.948,0,0,0,1.684,1.056c.114,0,.171.02.171.057,0,.077.161.171.485.285a2.494,2.494,0,0,0,.656.171c.076-.037.18-.009.313.086s.162.085.086-.029c-.077-.075-.077-.114,0-.114a.1.1,0,0,1,.114.114c0,.114.037.1.114-.057,0-.037.094-.085.285-.142a4.744,4.744,0,0,1,.685-.143c.265-.037.542-.076.827-.114a6.205,6.205,0,0,0,.656-.114q1.2-.114,2.169-.228.8-.114,1.455-.143t.542.086c0,.114.037.114.114,0s.19-.133.342-.057a2.211,2.211,0,0,0,1.056-.029q.6-.142.771.086a.486.486,0,0,0,.228.142c.075.02.094-.009.057-.085s.028-.094.2-.057.237.1.2.171h.342c.037.077.171.162.4.256s.38.125.456.086q.057-.056.057,0c0,.077.086.143.257.2s.237.1.2.142a.985.985,0,0,0,.114.285.759.759,0,0,1-.056.628c-.077.115-.143.21-.2.286s-.086.1-.086.056c-.114-.075-.142-.028-.085.143s-.029.22-.257.143q-.171,0,0,.114c.114.077.114.171,0,.285a1.942,1.942,0,0,0-.428.485q-.258.372-.143.257c.076-.076.094-.086.057-.029s-.086.134-.143.229-.114.19-.171.285a.257.257,0,0,0-.028.256c.075.191.057.228-.057.114s-.191-.132-.228-.057a3.73,3.73,0,0,1-.6.4q-.485.286-.6.228-.172-.113-.029.029c.094.1.009.124-.257.085-.191-.075-.285-.057-.285.057,0,.077-.1.114-.286.114q-.4.058-.713.086a.788.788,0,0,0-.371.085.756.756,0,0,1-.8,0c-.077-.075-.171-.075-.285,0a.944.944,0,0,1-.428.143c-.171.02-.238-.008-.2-.086l-.056-.057a.171.171,0,0,0-.115-.057q-.286-.056-.085.086c.133.1.143.143.028.143s-.171-.037-.171-.115q-.171-.284-.456,0a.479.479,0,0,1-.4.086.648.648,0,0,1-.4-.143c-.114-.114-.171-.132-.171-.057.037.077-.048.124-.257.143s-.238-.009-.085-.086c.114-.114.037-.114-.228,0a1.073,1.073,0,0,1-.428.057c-.209,0-.428-.009-.656-.028a4.4,4.4,0,0,1-.6-.086c-.171-.037-.238-.075-.2-.114.037-.075.029-.132-.028-.171s-.086-.018-.086.057-.124.106-.371.086-.391-.066-.428-.143q0-.113-.114,0a.23.23,0,0,1-.257-.057.447.447,0,0,0-.2-.114c-.038.039-.163.039-.371,0s-.313-.075-.313-.114c0-.075-.163-.085-.485-.028a2.8,2.8,0,0,0-.714.2.549.549,0,0,1-.285.114,1.329,1.329,0,0,0-.4.114c-.114.039-.276.1-.485.171s-.428.153-.656.229-.438.152-.628.228a1.311,1.311,0,0,0-.342.171c0,.038-.057.057-.172.057a5.464,5.464,0,0,0-.656.313,3.087,3.087,0,0,0-.6.371q-.115.171-.171.114a1.793,1.793,0,0,0-.4.171,5.808,5.808,0,0,0-.714.428,6.42,6.42,0,0,0-.656.513c-.191.171-.286.276-.286.313,0,.077-.019.1-.056.057-.077-.037-.172-.009-.286.086s-.152.181-.113.256a.05.05,0,0,1,.056.057q0,.058-.114.114a.31.31,0,0,1-.113.143c-.039.02-.058.01-.058-.029a4.276,4.276,0,0,0-.685.514,2.951,2.951,0,0,0-.685.884,6.665,6.665,0,0,0-.228.828,3.319,3.319,0,0,0,.028,1.569,3.877,3.877,0,0,0,.542,1.569,2.994,2.994,0,0,1,.628,1.027,1.7,1.7,0,0,0,.314.342.813.813,0,0,1,.256.342c0,.115.019.171.058.171a.853.853,0,0,1,.285.171,4.518,4.518,0,0,1,.457.4,4.154,4.154,0,0,0,.456.4.821.821,0,0,0,.285.171.135.135,0,0,1,.142.114.134.134,0,0,0,.143.114c.076,0,.161.057.257.171s.18.171.256.171a.33.33,0,0,1,.228.114,2.53,2.53,0,0,0,.371.285c.171.114.256.134.256.057a.051.051,0,0,1,.057.057q0,.115.8.456t1.741.656q.941.315,1.8.513c.571.134.875.143.914.029q-.115-.227.114,0a1.7,1.7,0,0,0,.856.171c.228,0,.332.028.314.085s.123.067.428.029c.342-.037.513-.076.513-.114s.171-.038.513,0a3.184,3.184,0,0,0,.6.114,1.29,1.29,0,0,0,.428-.114c.3-.114.418-.114.342,0-.039.077-.039.114,0,.114s.094-.037.171-.114a.614.614,0,0,1,.371-.143,1.394,1.394,0,0,1,.485.029q.171.057.057,0c-.077-.076.114-.133.571-.171q.514-.114,1.4-.285t1.34-.285q.227-.057.428-.115t1.055-.4q.285-.113.485-.171a.447.447,0,0,1,.314,0c.151,0,.228-.037.228-.114q0-.171.513-.313a1.708,1.708,0,0,0,.628-.257l.114-.114h.057q.114.057.285-.114c.115-.114.209-.133.286-.057a.327.327,0,0,0,.228.057c.038-.075.076-.057.115.057s.094.153.171.114c.075-.075.047-.18-.086-.314s-.085-.218.143-.256c.114-.037.171-.019.171.057s.037.1.114.057c.075-.076.114-.133.114-.171-.039-.037.066-.133.313-.285s.523-.323.828-.513q.57-.285,1.113-.628t1.17-.742a.171.171,0,0,0,.028-.171c-.02-.075.009-.114.086-.114s.18-.066.314-.2.237-.2.313-.2.114-.018.114-.057c-.038-.037.018-.133.171-.285a.718.718,0,0,1,.571-.114,1.36,1.36,0,0,1,.285-.171q-.228-.227.029-.371c.171-.094.237-.047.2.143l.513-.342a.224.224,0,0,1,.028-.143c.019-.018.028-.009.028.029a.351.351,0,0,0,.286-.143,3.075,3.075,0,0,1,.228-.256c.19-.115.256-.209.2-.286s-.028-.094.086-.057c.037.039.057.02.057-.057l.057-.057c.075.039.171-.009.285-.142s.152-.237.114-.314l.057-.057q.056.058.456-.342c.19-.266.342-.4.456-.4q.114,0,0-.171c0-.076.019-.094.057-.057.076.038.123-.019.143-.171s-.01-.228-.086-.228c-.228-.151-.152-.228.228-.228A1.085,1.085,0,0,0,304.7,301c.019-.018.028-.085.028-.2a.433.433,0,0,1,.057-.4c.037-.076.086-.1.143-.086a.745.745,0,0,1,.171.086,1.212,1.212,0,0,0,.143.085c.037.02.056-.009.056-.085q.228-.456-.056-.171c-.153.077-.191.038-.115-.115a5.255,5.255,0,0,1,.685-.856q.284-.342.6-.742a4.123,4.123,0,0,0,.428-.628q.227-.513.342-.513a.434.434,0,0,0,.371.085q.257-.028.313-.142c.076-.114.161-.152.257-.114a.378.378,0,0,1,.2.285q0,.171.057.114a.367.367,0,0,1,.229-.171q.171-.056.171-.171-.058-.285.285-.285c.151-.037.237-.019.256.057a.525.525,0,0,1-.028.285c-.039.114-.077.238-.114.37a.432.432,0,0,0,0,.314m-40.687,3.823q0,.171-.029-.171t.029-.171a.285.285,0,0,1,0,.342m1.426-2.625c-.076.153-.124.153-.142,0s.009-.208.085-.171a.237.237,0,0,1,.057.171m0-.342c-.152,0-.181-.009-.085-.028s.1-.066.028-.143q-.057-.171.172-.028c.152.1.114.162-.115.2m1.769-1.712c-.077,0-.124-.047-.143-.143s.009-.142.086-.142.123.048.142.142-.01.143-.085.143m.8-.628c-.038,0-.057-.038-.057-.115q0-.227.057-.085c.037.1.037.162,0,.2m.456,11.527q.285-.171-.028-.342t-.143,0a.274.274,0,0,1,.086.256c-.02.1.009.124.085.086m.229,2.91a.334.334,0,0,0-.058-.228c-.114-.037-.134,0-.057.114.037.191.076.228.115.114m.742-2.226c-.039.114-.029.162.028.143a.132.132,0,0,0,.086-.143c.037-.076-.039-.161-.229-.257s-.266-.066-.228.086c.037.077.115.1.228.057s.152,0,.115.114m-.115-13.41c-.076-.037-.1-.085-.056-.142a.19.19,0,0,1,.171-.086c.075,0,.085.039.028.114s-.106.114-.143.114m.856,16.492c-.039.038-.02.134.057.285a.26.26,0,0,1,.028.371c-.1.133-.181.1-.256-.086-.077-.075-.134-.114-.172-.114a.492.492,0,0,1-.285-.142c-.114-.1-.1-.162.057-.2q.171-.114.085.057c-.057.114-.029.1.086-.057.075-.151.114-.171.114-.057s.066.1.2-.029.161-.142.086-.028m-.4-14.437q-.342.228-.115.228c.037,0,.115-.076.229-.228s.075-.151-.114,0m.342,11.983c.075-.075.018-.19-.171-.342s-.286-.19-.286-.114a.685.685,0,0,0,.457.456m.114-14.38a.158.158,0,0,0-.228-.028c-.077.056-.077.123,0,.2a.162.162,0,0,0,.2.086.635.635,0,0,0,.257-.114.479.479,0,0,0,.142-.143c.019-.037-.01-.037-.085,0-.114.077-.21.077-.285,0m.513,1.769c0-.076-.106-.038-.314.114s-.313.266-.313.342c-.039.038-.049.057-.029.057s.066-.037.143-.114a.671.671,0,0,0,.171-.114.64.64,0,0,1,.171-.114.151.151,0,0,0,.171-.171m.057,12.9c.037-.075-.029-.171-.2-.285s-.256-.114-.256,0q-.058.171,0,.171c.19-.075.285-.057.285.057s.018.181.057.2.075-.029.114-.143m.342,2.568q.284.286.086.542t-.143-.029c0-.114-.02-.171-.057-.171-.114,0-.134.039-.057.114a.159.159,0,0,1-.029.2c-.056.057-.142.028-.256-.086-.077-.075-.114-.132-.114-.171a.848.848,0,0,1,.171-.285c.19-.151.323-.19.4-.114m.114-2.283c0-.037-.057-.114-.171-.228-.191-.151-.228-.142-.114.029s.209.238.285.2m-.057-12.782c-.039.077-.02.1.057.085a.134.134,0,0,0,.114-.142c.037-.076.019-.1-.057-.086a.135.135,0,0,0-.114.143m1.769,16.206c-.077-.037-.143.01-.2.143s-.048.219.028.256q.114.115-.056.058a.707.707,0,0,1-.286-.172l-.171-.114c.076.114-.01.106-.256-.028s-.334-.2-.257-.2c.037-.037.047-.066.029-.085s-.049-.009-.086.028a.441.441,0,0,1-.456-.142c-.114-.133-.077-.237.114-.314.114-.037.142-.132.086-.285s-.049-.228.028-.228a.1.1,0,0,1,.114.114q-.115.513.2.513a.852.852,0,0,1,.6.285c.151.153.294.2.428.143s.218-.047.257.028c0,.077-.039.077-.114,0m-1.484-3.2c.19.077.237.049.143-.085s-.181-.161-.257-.086a.181.181,0,0,0,.114.171m.456-13.467c-.038.077,0,.114.114.114s.152-.037.114-.114c0-.076-.028-.115-.085-.115s-.106.039-.143.115m.171-.914c-.077-.075-.1-.047-.085.086s.047.181.085.142Zm.57.514c-.191.191-.209.277-.057.257s.209-.085.171-.2c-.114-.114-.1-.133.057-.057.19.039.257,0,.2-.114s-.181-.075-.371.114m.742,17.519c-.039,0-.029.028.028.085a.645.645,0,0,1,.114.142c.019.039.019.058,0,.058a2.286,2.286,0,0,1-.313-.114c-.229-.115-.342-.209-.342-.286a.183.183,0,0,1,.113-.171.259.259,0,0,1,.257.029.282.282,0,0,1,.143.257m-.171-32.7c-.039,0-.077-.029-.114-.085s-.02-.086.056-.086.123.02.143.057-.01.077-.085.114m.4,14.836a.239.239,0,0,0-.228-.085.135.135,0,0,0-.114.142c0,.077.028.114.085.114s.086-.037.086-.114.047-.085.142-.028.1.048.029-.029m.114,17.576c.228-.075.342.057.342.4.037.267-.114.285-.456.058l-.228-.171a.79.79,0,0,1,.342-.058c.152,0,.133-.018-.057-.057-.114-.037-.1-.094.057-.171m.228-32.983q-.115.057-.171-.114t0-.228c.076-.037.132,0,.171.114s.037.191,0,.228m1.54,33.554a.548.548,0,0,1,.428.085,2.791,2.791,0,0,1,.428.285.65.65,0,0,1,.2.228c.019.057-.048.049-.2-.028a.19.19,0,0,0-.256-.029c-.1.057-.124.048-.086-.028q.114-.114,0-.171a.187.187,0,0,0-.228.057.186.186,0,0,1-.228.057c0-.037-.077-.057-.228-.057-.077.077-.2.077-.371,0a1.082,1.082,0,0,0-.371-.114.4.4,0,0,1-.4-.257c-.077-.171,0-.294.228-.371.152-.037.218-.018.2.058s.029.1.143.056.247.01.4.143.266.162.342.086m-.856-18.775q-.115.115.086.086c.132-.019.161-.047.085-.086Zm.4-15.863c-.077,0-.114-.047-.114-.143s.037-.142.114-.142.114.048.114.142-.038.143-.114.143m2.91,34.751a.174.174,0,0,1,0,.257.351.351,0,0,1-.285.143c-.153,0-.228.038-.228.114s-.029.114-.086.114-.1-.037-.142-.114a.335.335,0,0,0-.228-.057.688.688,0,0,1-.342-.171c-.153-.114-.191-.209-.114-.286.037-.037.047-.018.028.058s.066.1.257.057c.114.038.171.028.171-.029a.312.312,0,0,0-.057-.171.28.28,0,0,1-.057-.114c0-.019.057.01.171.086a2,2,0,0,0,.542.285c.057,0,.1-.038.143-.114,0-.19.075-.209.228-.058m1.2-35.551q-.8.457-1.369.856c-.381.266-.57.437-.57.513q.056.115.285-.086c.151-.132.209-.218.171-.256a.115.115,0,0,1,.028-.086c.019-.018.029-.009.029.029q.113.057.6-.257a4.619,4.619,0,0,0,.6-.428.962.962,0,0,1,.371-.2,5.1,5.1,0,0,0,.771-.371c.3-.114.608-.237.913-.371s.532-.237.685-.314q.513-.171.513-.342t-.256-.028a1.843,1.843,0,0,1-.542.2c-.342.153-.5.248-.456.285s0,.057-.114.057a1.094,1.094,0,0,0-.713.257,4.408,4.408,0,0,1-.942.542m-1.084,32.356q-.115,0-.057-.057a.189.189,0,0,1,.2,0c.057.038.009.057-.143.057m.171-15.75a.113.113,0,0,0-.171.057.112.112,0,0,0,.057.171.311.311,0,0,0,.228-.142c.076-.094.037-.123-.114-.086m.513-15.464c.076-.076.094-.143.057-.2s-.057-.047-.057.029c0,.114-.038.134-.114.057-.077-.038-.1-.019-.085.057s-.029.114-.143.114q-.286.115-.086.171c.133.038.276-.037.428-.228m.228,15.35q-.571-.056-.342.228c.076.153.151.191.228.114.152-.075.19-.057.114.057s-.057.114.057,0q.285-.4.4.057c0,.114.019.181.057.2s.1-.029.171-.143c.037-.037.047-.057.029-.057s-.048.02-.085.057q-.116.058,0-.057c.075-.114.075-.19,0-.228a.111.111,0,0,1-.057-.171c.037-.037.047-.066.028-.085s-.067-.009-.143.028c-.077.077-.228.077-.456,0m.114-15.578c.076-.037.114-.076.114-.114s-.038-.037-.114,0c-.114,0-.171.028-.171.085s.057.067.171.029m.628,16.548c-.039-.037-.106-.037-.2,0s-.067.057.086.057c.075,0,.114-.018.114-.057m.113-17c.037-.076-.019-.076-.171,0s-.152.113,0,.113c.037,0,.1-.037.171-.113m.286,16.092q-.4.058-.342.342c.037.153.171.21.4.171.19,0,.247-.018.172-.057-.114.039-.163-.028-.143-.2s-.01-.257-.085-.257m.342-16.321a.151.151,0,0,0,.171-.171c-.039-.152-.124-.161-.257-.028s-.1.2.086.2m-.114,16.606q-.115.115.114.086c.152-.019.228-.066.228-.143q.113-.056-.114-.114t-.171.057c.075.077.057.114-.057.114m.913-17.062c.075-.114.019-.132-.171-.057q-.342.171-.171.171c.19.114.3.077.342-.114m-.057,17.005c-.077-.075-.142-.066-.2.029a.275.275,0,0,0,.029.313q.114.229.114.114c.037-.075.114-.075.228,0s.19.077.228,0c.075-.114.133-.114.171,0a.421.421,0,0,0,.314.114c.132,0,.161-.037.085-.114-.038-.075.047-.114.257-.114s.294.02.256.057c0,.077.247.114.742.114a.912.912,0,0,0,.228-.028c.075-.019.094-.029.056-.029a.146.146,0,0,1,.058-.2c.075-.057.094-.047.057.028q-.115.286.628.114.57-.113.542,0t.314,0a.538.538,0,0,1,.428-.085c.209.02.313-.009.313-.086-.038-.075.076-.1.342-.085s.4-.009.4-.086a.54.54,0,0,1,.314-.142.532.532,0,0,0,.313-.143q.228-.113.286-.057c.114,0,.133-.076.057-.228-.039-.075-.153-.086-.343-.028a.967.967,0,0,0-.4.2c-.039.114-.1.134-.172.057q-.057-.114-.856,0a4.438,4.438,0,0,1-.97.114,3.121,3.121,0,0,0-.856.114q-.229.058-.171,0c0-.075-.086-.1-.257-.085s-.256.067-.256.142q-.058.229-.286.029a.5.5,0,0,0-.456-.143c-.229.039-.257.067-.086.086s.218.067.142.142a.429.429,0,0,1-.4.057.771.771,0,0,1-.4-.171c-.077-.114-.152-.132-.228-.057-.114.114-.191.114-.228,0-.077-.114-.152-.161-.228-.142s-.1.067-.057.142.019.1-.057.057m.342-19.458c-.152.266-.248.333-.285.2a.258.258,0,0,1,.114-.313.231.231,0,0,0,.257-.058q.141-.113-.086.172m2.91,1.426a1.619,1.619,0,0,0-.97.114c-.228.038-.3.1-.228.171.075.038.037.057-.115.057q-.514.115-1.112.285c-.4.114-.58.21-.542.285a.131.131,0,0,0,.086.143c.057.02.123-.009.2-.086a.33.33,0,0,1,.228-.114c.151,0,.2-.047.143-.142s.008-.086.2.028c.114.077.275.057.485-.057a.659.659,0,0,1,.485-.114.255.255,0,0,0,.228-.085.437.437,0,0,1,.171-.143,4.662,4.662,0,0,0,.828-.2c.133-.057.1-.1-.085-.143m-2.169,36.75q.114-.114-.057-.229t0-.228c.076-.075.094-.132.057-.171q-.115,0-.256.171c-.1.115-.181.153-.257.115-.191,0-.238.048-.142.142s.123.181.085.256c0,.039.094.049.285.029s.285-.047.285-.085m-.114-38.29c-.077.038-.114.02-.114-.058a.1.1,0,0,1,.114-.113c.076,0,.114.028.114.085s-.038.086-.114.086m.057,18.945c-.077.077-.048.1.086.086s.161-.047.085-.086Zm.057-17.519q-.057.171.2.114t.257-.171c.037-.114-.029-.152-.2-.114s-.257.1-.257.171m.114,35.722a.224.224,0,0,0,.143-.028c.018-.019.009-.029-.029-.029,0-.037-.048-.037-.142,0s-.086.057.028.057m.228,1.027c.076.077.143.086.2.029a.309.309,0,0,0,.086-.228,1.071,1.071,0,0,0-.029-.257c-.02-.075-.067-.094-.142-.057a.705.705,0,0,0-.172.286c-.038.113-.02.19.057.228m0-17.633a.1.1,0,0,1,.115-.114c.075,0,.075.048,0,.143s-.115.086-.115-.029m.057,16.549c-.038.039.058.057.285.057s.3-.037.228-.114c-.038-.075-.113-.1-.228-.085a.519.519,0,0,0-.285.142m.229-35.95c-.039,0-.068.028-.086.085s.009.086.086.086c0,.038.018.02.056-.057s.019-.114-.056-.114m.285,37.434c.037-.151-.038-.18-.228-.086s-.19.143,0,.143a.329.329,0,0,0,.228-.057m-.171-19.573c-.076.077-.048.1.086.086s.161-.048.085-.086Zm1.028,18.888c.037,0,.057-.037.057-.114a.39.39,0,0,0-.371-.057.382.382,0,0,1-.371-.057q-.228-.056-.285.057a.185.185,0,0,0,.056.229.535.535,0,0,0,.314.142.426.426,0,0,0,.371-.142c.114-.115.19-.133.228-.058m-.742-36.806q-.4.115-.057.142c.228.02.323-.009.285-.085,0-.037-.076-.057-.228-.057m.513.8a.232.232,0,0,1-.143-.085c-.057-.057-.048-.1.028-.143a.133.133,0,0,1,.143.086.13.13,0,0,1-.028.142m.171,17.005c-.228.038-.342.077-.342.114s.037.057.114.057a1.231,1.231,0,0,0,.313-.057c.133-.037.2-.076.2-.114,0-.075-.1-.075-.285,0m2.4,18.432a.594.594,0,0,0,.428-.057c.171-.075.218-.152.143-.228a.577.577,0,0,0-.342-.142c-.153-.019-.229-.009-.229.028-.076.077-.057.114.058.114.075.077-.029.134-.314.171s-.409.02-.371-.057c-.077-.075-.134-.057-.171.057q.056.229-.314.171t-.428.057c0,.077-.077.124-.228.143s-.248.028-.285.028-.057.077-.057.228c0,.191.075.238.228.143a.79.79,0,0,1,.4-.143c.151,0,.208-.018.171-.057,0-.075.086-.142.257-.2a.526.526,0,0,1,.37-.029c.114.077.218.049.314-.085a.326.326,0,0,1,.371-.143m-2-18.374c-.039.077.019.1.171.086s.209-.066.171-.143c0-.075-.039-.1-.114-.086a.5.5,0,0,0-.228.143m.057-18.146c-.077.077-.057.134.057.171.076.038.132.038.171,0s.018-.094-.057-.171Zm.342.8c0,.077.057.1.171.057a1.3,1.3,0,0,1,.913-.057c0,.077.066.086.2.029s.2-.123.2-.2c.037-.076.009-.143-.086-.2a.191.191,0,0,0-.257.029c0,.077-.134.114-.4.114-.456.038-.7.114-.742.228m.456,17.176c-.3,0-.419.039-.342.114q.056.115.428.057c.247-.037.389-.094.428-.171.076-.037.086-.076.029-.114s-.106-.019-.143.057c0,.114-.134.134-.4.057m1.483-.285c-.494,0-.742.077-.742.228,0,.077.18.1.542.057s.542-.094.542-.171q.057-.114-.342-.114m-.628,17.747a.182.182,0,0,0-.114.171c0,.077.037.077.114,0a.361.361,0,0,0,.086-.171c.018-.076-.01-.076-.086,0m.914-.228c.075.152.114.152.114,0s-.039-.19-.114-.114a.057.057,0,0,0,0,.114m.114-35.494c-.077,0-.114.028-.114.085a.193.193,0,0,0,.056.143c.038,0,.076-.037.115-.114s.018-.114-.057-.114m.628,36.293c0-.037-.039-.037-.114,0s-.114.02-.114-.057-.057-.057-.171.057c-.228.153-.22.22.028.2s.371-.086.371-.2m.628-.114c0-.037-.02-.037-.057,0s-.1.02-.171-.057-.1-.133-.057-.171q0-.171-.171-.057a.182.182,0,0,0-.057.285.228.228,0,0,0,.228.114.386.386,0,0,0,.285-.114m.114-36.064c-.114-.076-.143-.066-.086.028s.123.106.2.029a.17.17,0,0,0-.114-.057m.228,35.95a.712.712,0,0,0,.171-.285q.056-.171-.171-.171c-.153.077-.209.134-.171.171a.334.334,0,0,1,.057.228c0,.153.037.171.114.057m.342-35.95c-.077,0-.114.028-.114.085s.037.086.114.086.114-.029.114-.086-.038-.085-.114-.085m.114,35.779c0-.114-.02-.171-.057-.171-.114-.076-.152-.029-.114.143s.094.18.171.028m.971-.285c-.077-.076-.171-.161-.286-.257s-.209-.066-.285.086c-.152.191-.057.266.285.228Zm-.058-34.7c0-.076.019-.114.058-.114.075,0,.085.048.028.143s-.086.085-.086-.029m.343,33.44c.075,0,.1-.029.085-.086a.132.132,0,0,0-.143-.085c-.114,0-.152.028-.114.085a.193.193,0,0,0,.172.086m.913-32.755c.114,0,.114-.018,0-.057q-.229-.227.142-.171t.371.171c0,.077.037.077.114,0,.152-.075.2-.047.143.086s-.029.162.085.085c.075-.075.114-.037.114.114q.114.286-.628-.057-.4-.113-.342-.171m1.655-1.312c-.038,0-.028.028.029.085a.441.441,0,0,0,.171.114.435.435,0,0,0,.114.029c.019,0-.01-.037-.086-.114a.329.329,0,0,0-.228-.114m.742.456c-.113-.076-.181-.094-.2-.057a.271.271,0,0,0,.028.2.514.514,0,0,0,.171.228.345.345,0,0,0,.171.085h.115l.056.057c.038.039.048.067.029.086s-.067.009-.142-.029q-.229-.056-.029.057a.332.332,0,0,1,.2.285.8.8,0,0,0,.028.314.915.915,0,0,1,.086.256c.075.077.132.067.171-.028a.308.308,0,0,0,0-.257.908.908,0,0,1-.114-.4.629.629,0,0,0-.229-.4c-.113-.114-.162-.19-.142-.228s-.048-.094-.2-.171m.914.8c-.114-.19-.134-.2-.057-.028a.479.479,0,0,1,.057.371c.037.077.066.057.085-.057a.311.311,0,0,0-.085-.285m1.084,27.277a.235.235,0,0,0-.171-.057c-.077,0-.057.038.057.114a.166.166,0,0,0,.114-.057" transform="translate(-92.309 -94.692)" fill="#fff"/><path d="M124.169,300.5H118.85a5.465,5.465,0,0,1-.494-1.6,13.383,13.383,0,0,1-.134-1.71q-.014-.882-.026-1.8a12.591,12.591,0,0,0-.174-1.884q.694,0,1.323.013t1.243.013h.682c.222,0,.458-.009.708-.026q1.417-.107,2.82-.161t2.846-.053q1.362,0,2.725.067t2.726.2a6.259,6.259,0,0,1,.856.134.98.98,0,0,1,.494.268,1.028,1.028,0,0,1,.241.494,5.409,5.409,0,0,1,.094.841q.053,1.1.12,2.152t.121,2.124q0,.616-.054,1.2t-.08,1.177q-.028,1.1-.094,2.178a8.581,8.581,0,0,0,.121,2.1,8.978,8.978,0,0,1,.133,1.764,3.539,3.539,0,0,1-.347,1.457,3.925,3.925,0,0,1-.962,1.216,8.156,8.156,0,0,1-1.71,1.1q-1.418.721-3.021,1.35t-3.274,1.109a29.728,29.728,0,0,1-3.367.762,20.236,20.236,0,0,1-3.3.28,25.745,25.745,0,0,1-3.3-.267,20.408,20.408,0,0,1-8.645-3.367,15.639,15.639,0,0,1-3.982-3.982,18.291,18.291,0,0,1-1.163-2.379q-.495-1.229-1-2.459a11.663,11.663,0,0,1-.842-3.354,23.466,23.466,0,0,1-.08-3.554q.093-1.8.361-3.621t.508-3.527a9.934,9.934,0,0,1,.815-2.793q.6-1.3,1.35-2.579.722-1.229,1.523-2.4a16.849,16.849,0,0,1,1.764-2.178,14.183,14.183,0,0,1,2.111-1.8,10.881,10.881,0,0,1,2.565-1.309,13.179,13.179,0,0,1,1.751-.508q1.056-.24,2.178-.428t2.2-.307a17.076,17.076,0,0,1,1.857-.121,19.869,19.869,0,0,1,3.849.374,28.84,28.84,0,0,1,3.768,1.015,6.36,6.36,0,0,1,2.365,1.617,17.209,17.209,0,0,1,2.124,2.672A25.848,25.848,0,0,1,132.828,283a24.376,24.376,0,0,1,1.1,2.646,1.979,1.979,0,0,1,.04,1.71,2.2,2.2,0,0,1-1.644.615q-1.122.08-2.218.187t-2.218.187a3.578,3.578,0,0,1-.454.027h-.936a4.965,4.965,0,0,1-.508-.027,1.6,1.6,0,0,1-1.683-1.39,4.264,4.264,0,0,0-.147-.574,4.051,4.051,0,0,1-.147-.574,4.314,4.314,0,0,0-.735-1.6,4.113,4.113,0,0,0-1.176-1.043,4.734,4.734,0,0,0-1.51-.561,9.127,9.127,0,0,0-1.737-.161,5.412,5.412,0,0,0-3.06,1.042,7.915,7.915,0,0,0-2.018,2.312,13.211,13.211,0,0,0-1.269,2.994q-.468,1.617-.842,3.087-.294,1.122-.6,2.258a7.254,7.254,0,0,0-.254,2.259q.08,1.1.254,2.178t.281,2.2a6.167,6.167,0,0,0,.441,1.724,6.719,6.719,0,0,0,.855,1.47,9.9,9.9,0,0,0,1.176,1.283q.655.6,1.35,1.136a3.49,3.49,0,0,0,1.083.521,14.061,14.061,0,0,0,1.5.388q.788.16,1.55.241t1.216.08a6,6,0,0,0,1.2-.12,5.256,5.256,0,0,0,1.2-.414q3.073-1.5,1.844-4.65c-.107-.285-.205-.584-.294-.9l-.294-1.029" transform="translate(-34.427 -94.423)" fill="#fff"/><path d="M58.781,273.722a31.2,31.2,0,0,1-2.764,1.544,17.981,17.981,0,0,1-2.693,1.041,9.119,9.119,0,0,1-2.872.395,8.2,8.2,0,0,1-2.872-.611l4.093-3.518q3.374,3.016,7.109,1.149M56.269,311.06a5.7,5.7,0,0,0,.251,1.185,7.205,7.205,0,0,0,.4.969,4.333,4.333,0,0,0,.5.79,7,7,0,0,0,.538.611,4.884,4.884,0,0,0,.538.467c.191.143.359.264.5.359a2.113,2.113,0,0,0,.395.216c.119.048.251.1.395.144H47.8c.1-.047.2-.1.323-.144a5.1,5.1,0,0,0,.718-.431,6.52,6.52,0,0,0,1.005-.826,4.953,4.953,0,0,0,.9-1.364,6.541,6.541,0,0,0,.574-1.975V289.447q0-1.866-2.3-2.944l-1.436-.431,3.734-1.58,4.954-2.154V311.06Zm2.513-37.339q.646-.359,1.22-.718a5.438,5.438,0,0,1-1.22.718" transform="translate(-16.378 -93.823)" fill="#fff"/><path d="M213.007,169.186c-16.312-16.612-38.849-25.766-61.972-26.816-20.592-.934-46.664,8.386-56.125,26.757a.867.867,0,0,0,.506,1.119.137.137,0,0,0,.012.044c8.311,19.364,38.569,29.088,57.029,28.975,20.7-.129,45.927-7.884,59.574-24.354a3.588,3.588,0,0,0,.977-5.726m-46.159-17.778c2.182.5,4.348,1.068,6.485,1.75-1.425,4.981-.637,9.648-4.941,14.075-3.713,3.821-9.458,5.036-14.57,5.083-13.354.125-18.912-9.636-20.356-21.334a56.624,56.624,0,0,1,7.4-1.147s16.733-1.532,25.984,1.573m-14.392,40.838c-9.588.387-16.885-1.215-25.949-4.254-9.668-3.242-18.76-10.763-24.61-19.542,6.673-7.379,17.351-13.4,25.07-15.744-.139,15.578,11.642,25.582,25.489,27.076a28.226,28.226,0,0,0,21.429-7.056c4.034-3.556,7.484-10.533,7.35-16.592a84.612,84.612,0,0,1,24.079,15.684c-15.354,12.756-32.517,19.605-52.858,20.428" transform="translate(-32.643 -48.984)" fill="#fff"/></g></svg>